<?xml version="1.0" encoding="iso-8859-1"?>
<!-- Generator: Adobe Illustrator 19.0.0, SVG Export Plug-In . SVG Version: 6.00 Build 0)  -->
<svg version="1.1" id="Layer_1" xmlns="http://www.w3.org/2000/svg" xmlns:xlink="http://www.w3.org/1999/xlink" x="0px" y="0px"
	 viewBox="0 0 512.002 512.002" style="enable-background:new 0 0 512.002 512.002;" xml:space="preserve">
<g>
	<g>
		<path d="M500.519,501.748L387.477,182.995c3.069,1.035,11.453,3.816,18.987,5.567c6.271,1.458,12.75-2.539,17.54-7.347
			c7.254-7.282,9.278-18.04,5.157-27.407c-6.076-13.807-13.757-26.973-22.831-39.135l-16.565-22.197
			C370.6,66.79,345.238,45.849,316.424,31.917c-27.111-13.109-57.321-20.078-87.537-20.239c0,0-4.915-12.553-18.483-11.629
			c-3.151,0.214-6.265,0.588-9.047,2.113c-10.174,5.573-10.574,12.561-10.681,12.949c-29.945,5.61-58.543,18.117-82.996,36.364
			L91.824,63.307c-24.437,18.234-44.58,42.111-58.473,69.201c-0.14-0.003-7.824-0.688-15.468,6.561
			c-3.973,3.767-5.485,9.242-5.431,14.715c0.095,9.459,6.721,14.389,6.721,14.389c-8.464,29.067-10.379,60.083-5.495,89.855
			c5.171,31.521,18.016,61.73,37.144,87.365l16.564,22.197c9.073,12.161,19.51,23.273,31.017,33.026
			c4.576,3.879,10.211,5.87,15.913,5.87c4.026,0,8.234-0.735,11.828-3.01c16.364-10.367,12.828-25.164,12.806-25.346
			l176.752,132.338c1.329,0.995,2.946,1.533,4.606,1.533h0.001c7.389,0,10.52-9.409,4.606-13.837L138.341,358.473
			c1.222-22.248,8.874-43.91,22.062-61.857c2.298,0.91,4.654,1.369,7.052,1.369c7.687,0,12.96-4.806,14.871-6.872
			c3.716-4.02,5.646-9.245,5.431-14.715c-0.075-1.921-0.426-3.786-1.004-5.565l44.609-33.286l179.207,271.009
			c1.423,2.152,3.83,3.446,6.41,3.446c6.124,0,9.789-6.815,6.41-11.924L243.698,228.339l36.028-26.884
			c3.383,2.412,7.278,3.694,11.464,3.694c4.438,0,7.849-1.444,9.107-2.065c7.551-3.719,11.793-11.497,11.407-19.413
			c18.504-6.674,38.523-8.383,57.878-5.155l116.451,328.368c1.088,3.067,3.989,5.116,7.242,5.116
			C498.583,512,502.292,506.749,500.519,501.748z M350.919,73.09c35.632,36.613,47.65,57.109,49.78,60.373
			c-0.937-0.146-53.085-25.809-113.366-3.093l-36.158-73.429C285.185,54.186,319.457,59.716,350.919,73.09z M305.753,44.018
			c-20.362-3.415-41.171-4.043-61.834-1.812l-7.362-14.95C260.704,28.387,284.189,34.177,305.753,44.018z M101.015,75.624
			l15.856-11.832c22.287-16.63,48.299-28.103,75.556-33.377l9.985,20.278c-3.412,1.044-6.802,2.161-10.135,3.359
			c-3.994,1.436-6.14,5.863-4.634,9.832c2.513,6.627,8.973,4.942,9.832,4.634c3.879-1.395,7.839-2.675,11.823-3.843l42.324,85.949
			l-105.728,78.891l-70.346-65.042c13.409-20.763,30.283-38.812,50.234-53.701c0,0,20.904-15.563,22.486-16.676
			c3.471-2.444,4.304-7.237,1.86-10.708c-2.444-3.469-7.237-4.304-10.708-1.86c-1.697,1.195-22.831,16.927-22.831,16.927
			c-20.706,15.451-38.32,34.079-52.48,55.443l-16.596-15.344C60.434,113.655,78.408,92.494,101.015,75.624z M31.914,179.953
			l12.24,11.317c-8.025,19.183-13.341,39.328-15.862,59.834C24.987,227.615,26.12,203.435,31.914,179.953z M87.001,367.541
			c-2.523-2.97-32.443-37.961-43.703-64.907c-3.862-33.956,0.593-68.401,12.914-100.216l60.097,55.566
			C77.785,307.378,87.13,366.602,87.001,367.541z M123.754,380.543c0.72,5.882-3.575,8.687-4.908,9.406
			c-1.328,0.714-6.007,2.756-10.505-1.055c-3.376-2.862-6.641-5.865-9.81-8.973c3.166-5.064,4.507-11.079,3.741-17.329
			c-4.108-33.547,5.118-67.53,25.368-94.131l20.472,18.929C128.58,313.904,119.718,347.579,123.754,380.543z M171.04,280.68
			c-0.294,0.328-4.28,3.475-7.392,0.142L29.451,156.742c-1.004-0.928-3.126-4.25-0.283-7.24c2.848-2.995,6.29-1.161,7.239-0.282
			l134.348,124.219C171.761,274.367,173.591,277.834,171.04,280.68z M177.392,258.639l-20.02-18.511l101.155-75.48l12.045,24.461
			L177.392,258.639z M293.509,189.295c-0.28,0.135-3.532,2.126-7.057-2.728L205.814,22.81c-0.605-1.228-1.321-5.089,2.332-6.859
			c3.358-1.626,5.99,0.566,6.859,2.332l80.834,164.153C297.087,184.971,296.041,188.048,293.509,189.295z M306.465,169.222
			l-12.32-25.018c31.275-11.847,66.426-11.019,97.46,2.487c3.514,1.529,7.163,2.286,10.781,2.286c2.327,0,4.638-0.328,6.891-0.952
			c2.079,3.927,4.031,7.916,5.816,11.972c2.374,5.396-0.914,9.301-1.979,10.37c-1.069,1.074-4.976,4.396-10.414,2.028
			C372.195,159.119,337.462,158.039,306.465,169.222z"/>
	</g>
</g>
<g>
	<g>
		<path d="M180.681,66.817c-1.854-3.818-6.447-5.411-10.268-3.559c-3.679,1.785-7.354,3.695-10.923,5.68
			c-3.71,2.062-4.933,6.68-2.985,10.45c2.912,5.639,9.267,3.643,10.449,2.985c3.323-1.846,6.744-3.625,10.169-5.287
			C180.941,75.232,182.533,70.635,180.681,66.817z"/>
	</g>
</g>
<g>
</g>
<g>
</g>
<g>
</g>
<g>
</g>
<g>
</g>
<g>
</g>
<g>
</g>
<g>
</g>
<g>
</g>
<g>
</g>
<g>
</g>
<g>
</g>
<g>
</g>
<g>
</g>
<g>
</g>
</svg>
