<?xml version="1.0" encoding="iso-8859-1"?>
<!-- Generator: Adobe Illustrator 19.0.0, SVG Export Plug-In . SVG Version: 6.00 Build 0)  -->
<svg version="1.1" id="Capa_1" xmlns="http://www.w3.org/2000/svg" xmlns:xlink="http://www.w3.org/1999/xlink" x="0px" y="0px"
	 viewBox="0 0 512.001 512.001" style="enable-background:new 0 0 512.001 512.001;" xml:space="preserve">
<g>
	<g>
		<path d="M505.805,439.105l-88.783-88.783c-2.929-2.929-7.678-2.929-10.606,0c-2.929,2.929-2.929,7.678,0,10.606l18.829,18.829
			l-28.533,4.503c-3.335,0.526-5.908,3.217-6.284,6.572l-2.846,25.38l-52.768-52.768l37.06-37.059l14.113,14.113
			c2.929,2.929,7.678,2.929,10.606,0c2.929-2.929,2.929-7.678,0-10.606l-52.837-52.837h30.259c0.915,2.114,2.219,4.099,3.944,5.824
			c3.674,3.673,8.499,5.509,13.323,5.509c4.825,0,9.65-1.836,13.324-5.51c7.346-7.346,7.346-19.3,0-26.647
			c-7.346-7.347-19.3-7.346-26.648,0c-1.725,1.725-3.029,3.71-3.943,5.823h-45.261L314.28,247.58L483.092,78.758
			c7.782-7.781,12.068-18.129,12.068-29.134s-4.285-21.353-12.065-29.132c-7.781-7.788-18.131-12.076-29.141-12.076
			c-11.01,0-21.359,4.289-29.14,12.075l-5.49,5.49c-2.929,2.929-2.928,7.678,0,10.607c2.93,2.929,7.678,2.928,10.607,0l5.491-5.492
			c4.948-4.952,11.529-7.679,18.531-7.679s13.583,2.727,18.533,7.681c4.948,4.948,7.673,11.528,7.673,18.528
			c0,6.999-2.725,13.58-7.674,18.528l-38.12,38.122l-2.846-25.382c-0.376-3.355-2.949-6.046-6.284-6.572l-28.534-4.503
			l12.439-12.439c2.929-2.929,2.929-7.678,0-10.606c-2.929-2.929-7.678-2.929-10.606,0L256,189.303l-93.819-93.819
			c-0.002-0.002-0.01-0.01-0.012-0.012L87.188,20.491C79.406,12.703,69.057,8.415,58.047,8.415c-11.01,0-21.36,4.289-29.139,12.075
			C21.126,28.271,16.84,38.618,16.84,49.624s4.285,21.353,12.068,29.134L197.73,247.581l-14.474,14.473h-45.269
			c-0.915-2.114-2.219-4.098-3.944-5.824c-7.348-7.346-19.302-7.345-26.647,0c-7.346,7.347-7.346,19.301,0,26.647
			c3.673,3.673,8.498,5.51,13.323,5.51s9.651-1.837,13.325-5.51c1.725-1.725,3.029-3.709,3.944-5.823h30.267L6.196,439.106
			c-8.261,8.262-8.261,21.706,0,29.967l28.311,28.311c4,4,9.319,6.202,14.98,6.202s10.979-2.203,14.979-6.202l90.504-90.504
			c2.929-2.929,2.929-7.678,0-10.606c-2.929-2.929-7.678-2.929-10.606,0l-19.94,19.939l-2.846-25.38
			c-0.376-3.355-2.949-6.046-6.284-6.572l-28.53-4.503l53.372-53.369l37.057,37.056l-11.208,11.208
			c-2.929,2.929-2.929,7.678,0,10.606c1.464,1.464,3.384,2.197,5.303,2.197s3.839-0.732,5.303-2.197l49.721-49.721v29.838
			c-2.114,0.915-4.098,2.219-5.823,3.944c-7.346,7.346-7.346,19.3,0,26.648c3.674,3.673,8.499,5.509,13.323,5.509
			c4.825,0,9.65-1.836,13.324-5.51c7.346-7.347,7.346-19.301,0-26.647c-1.725-1.725-3.709-3.029-5.823-3.944v-44.839L256,305.85
			l14.688,14.688v44.84c-2.114,0.915-4.098,2.219-5.823,3.944c-7.346,7.346-7.346,19.3,0,26.647c3.673,3.673,8.498,5.51,13.324,5.51
			s9.65-1.837,13.325-5.51c7.346-7.347,7.346-19.301,0-26.648c-1.725-1.725-3.71-3.029-5.823-3.943v-29.839l161.845,161.845
			c4,4,9.319,6.202,14.98,6.202s10.979-2.203,14.98-6.202l28.311-28.311C514.067,460.811,514.067,447.367,505.805,439.105z
			 M388.562,266.837c0.749-0.749,1.733-1.124,2.717-1.124c0.984,0,1.968,0.374,2.717,1.123c1.498,1.499,1.498,3.936,0,5.434
			s-3.936,1.498-5.434,0S387.064,268.335,388.562,266.837z M123.438,272.27c-1.498,1.499-3.935,1.499-5.434,0
			c-1.498-1.498-1.498-3.935,0-5.434c1.498-1.498,3.936-1.498,5.433,0C124.935,268.335,124.936,270.773,123.438,272.27z
			 M53.858,486.778c-1.166,1.167-2.718,1.809-4.371,1.809s-3.206-0.643-4.372-1.809l-28.311-28.311c-2.413-2.413-2.413-6.34,0-8.753
			l31.402-31.401l33.663,5.312l3.543,31.599L53.858,486.778z M107.307,398.186l3.543,31.598L98.985,441.65l-2.846-25.38
			c-0.376-3.355-2.949-6.046-6.284-6.572l-28.532-4.502l12.323-12.322L107.307,398.186z M383.584,82.934l33.664,5.311l3.544,31.602
			l-17.996,17.997l-37.061-37.061L383.584,82.934z M355.128,111.389l37.063,37.062l-16.414,16.415l-37.063-37.063L355.128,111.389z
			 M328.107,138.41l37.062,37.062l-16.414,16.415l-37.063-37.063L328.107,138.41z M301.086,165.431l37.063,37.063l-16.414,16.415
			l-37.064-37.064L301.086,165.431z M274.064,192.452l37.064,37.064l-7.457,7.458l-37.064-37.064L274.064,192.452z M80.482,80.892
			l-2.846,25.38l-38.122-38.12c-4.948-4.949-7.673-11.528-7.673-18.528s2.725-13.58,7.675-18.53
			c4.948-4.952,11.529-7.679,18.531-7.679c7.001,0,13.583,2.727,18.533,7.681l38.72,38.721L86.766,74.32
			C83.431,74.846,80.858,77.537,80.482,80.892z M91.208,119.844l3.544-31.599l33.664-5.312l17.849,17.849l-37.06,37.06
			L91.208,119.844z M119.811,148.448l37.06-37.06l16.415,16.415l-37.06,37.06L119.811,148.448z M146.833,175.469l37.06-37.06
			l16.415,16.415l-37.059,37.059L146.833,175.469z M190.267,218.905l-16.414-16.415l37.059-37.059l16.415,16.415L190.267,218.905z
			 M236.528,385.362c-1.498,1.498-3.936,1.498-5.433,0c-1.498-1.498-1.499-3.936,0-5.433c0.749-0.749,1.733-1.124,2.717-1.124
			s1.968,0.374,2.717,1.123C238.026,381.427,238.026,383.864,236.528,385.362z M228.509,312.127
			c-0.001,0.001-0.002,0.002-0.003,0.003l-40.709,40.709l-37.056-37.056l57.597-57.594l2.724,2.724l-38.18,38.189
			c-2.929,2.929-2.928,7.677,0,10.606l20.991,20.991c1.407,1.407,3.314,2.197,5.304,2.197c1.99,0,3.897-0.791,5.303-2.197
			l38.178-38.188l2.733,2.733L228.509,312.127z M221.669,271.52l10.383,10.383l-32.875,32.883l-10.384-10.383L221.669,271.52z
			 M254.787,283.423l-53.912-53.911l37.06-37.059l53.911,53.911l-2.731,2.731l-6.791-6.791c-2.929-2.929-7.678-2.929-10.606,0
			l-20.991,20.991c-2.929,2.929-2.929,7.678,0,10.606l6.791,6.791L254.787,283.423z M323.208,304.401l-10.383,10.383l-46.188-46.188
			l10.383-10.383L323.208,304.401z M280.905,385.362c-1.498,1.498-3.936,1.499-5.434,0c-1.498-1.499-1.498-3.936,0-5.434
			c1.498-1.498,3.936-1.498,5.434,0S282.403,383.864,280.905,385.362z M265.393,294.03l2.731-2.731l39.396,39.396
			c1.464,1.464,3.384,2.197,5.303,2.197s3.839-0.732,5.303-2.197l20.991-20.991c2.929-2.929,2.929-7.678,0-10.606l-39.396-39.396
			l2.731-2.731l58.808,58.808l-37.059,37.059L265.393,294.03z M415.86,416.27l-2.846,25.38l-11.865-11.865l3.544-31.598
			l33.664-5.313l12.322,12.322l-28.534,4.503C418.809,410.224,416.236,412.915,415.86,416.27z M495.196,458.467l-28.311,28.311
			c-1.167,1.166-2.719,1.809-4.372,1.809s-3.205-0.642-4.372-1.809l-31.554-31.554l3.544-31.599l33.664-5.312l31.401,31.401
			C497.609,452.126,497.609,456.052,495.196,458.467z"/>
	</g>
</g>
<g>
</g>
<g>
</g>
<g>
</g>
<g>
</g>
<g>
</g>
<g>
</g>
<g>
</g>
<g>
</g>
<g>
</g>
<g>
</g>
<g>
</g>
<g>
</g>
<g>
</g>
<g>
</g>
<g>
</g>
</svg>
