<svg id="Capa_1" enable-background="new 0 0 512 512" height="512" viewBox="0 0 512 512" width="512" xmlns="http://www.w3.org/2000/svg"><g><g><path d="m486.177 25.823c-34.429-34.43-90.453-34.43-124.882 0-11.577 11.577-30.282 31.927-51.943 55.492-32.695 35.57-73.386 79.837-111.329 117.78-31.68 31.68-65.805 63.301-95.008 90.055-3.054 2.798-3.262 7.542-.464 10.596 1.479 1.615 3.502 2.434 5.532 2.434 1.81 0 3.625-.651 5.064-1.97 29.323-26.864 63.598-58.625 95.482-90.509 38.166-38.166 78.976-82.563 111.767-118.236 21.546-23.439 40.153-43.682 51.507-55.036 21.289-21.29 52.521-26.709 78.885-16.283l-106.012 106.011c-10.86-9.799-27.673-9.471-38.136.99l-30.001 30c-10.462 10.462-10.79 27.28-.985 38.141l-28.491 28.491c-2.929 2.929-2.929 7.678 0 10.606 1.464 1.465 3.384 2.197 5.303 2.197s3.839-.732 5.304-2.197l28.465-28.465 19.853 19.853-80.324 80.324-19.853-19.853 27.002-27.002c2.929-2.929 2.929-7.678 0-10.606-2.929-2.929-7.678-2.929-10.606 0l-27.028 27.028c-5.098-4.607-11.631-7.13-18.552-7.13-7.4 0-14.357 2.882-19.589 8.114l-30 30c-10.46 10.461-10.79 27.275-.989 38.136l-103.103 103.104c-5.2-5.981-8.047-13.542-8.047-21.546v-19.382c0-8.788 3.422-17.051 9.637-23.266l18.878-18.878c10.174-10.174 26.41-25.091 43.56-40.771 3.057-2.795 3.269-7.539.474-10.596s-7.539-3.269-10.596-.474c-17.28 15.8-33.652 30.842-44.045 41.235l-18.878 18.878c-9.046 9.048-14.029 21.077-14.029 33.872v19.382c0 12.795 4.983 24.825 14.031 33.872l37.755 37.756c9.047 9.047 21.077 14.03 33.872 14.03h19.382c12.795 0 24.824-4.983 33.872-14.031l18.878-18.878c11.585-11.585 28.957-30.602 49.072-52.622 30.344-33.217 68.108-74.557 106.044-112.492 28.923-28.925 61.302-59.168 83.139-79.401 3.039-2.815 3.22-7.56.405-10.598-2.816-3.039-7.561-3.22-10.599-.405-21.927 20.316-54.446 50.692-83.552 79.798-38.174 38.174-76.065 79.653-106.511 112.982-19.992 21.885-37.258 40.786-48.604 52.132l-18.878 18.878c-6.215 6.215-14.477 9.637-23.266 9.637h-19.382c-8.003 0-15.565-2.846-21.546-8.047l103.104-103.103c5.254 4.742 11.899 7.112 18.547 7.112 7.093-.001 14.189-2.701 19.589-8.101l30-30c5.232-5.232 8.114-12.189 8.114-19.589 0-6.916-2.519-13.445-7.12-18.541l80.378-80.378c5.096 4.601 11.624 7.12 18.541 7.12 7.399 0 14.356-2.882 19.588-8.114l30.001-30h.001c10.46-10.461 10.79-27.275.989-38.136l106.011-106.01c10.427 26.364 5.007 57.595-16.282 78.885-11.354 11.353-31.595 29.959-55.032 51.502l-8.784 8.076c-3.049 2.804-3.247 7.548-.443 10.597 2.805 3.048 7.549 3.247 10.597.443l8.781-8.073c23.561-21.658 43.91-40.363 55.487-51.939 34.428-34.43 34.428-90.452-.002-124.881zm-452.589 432.735 103.142-103.141 19.853 19.853-103.142 103.142zm191.157-114.304-30 30c-4.953 4.954-13.012 4.954-17.965 0l-39.035-39.035c-4.953-4.953-4.953-13.012 0-17.965l30-30c2.399-2.399 5.589-3.721 8.982-3.721s6.583 1.321 8.983 3.721l39.034 39.034c2.399 2.399 3.721 5.59 3.721 8.983s-1.321 6.584-3.72 8.983zm149.502-149.501-30.001 30c-2.399 2.399-5.589 3.721-8.981 3.721-3.393 0-6.583-1.321-8.982-3.721l-39.035-39.034c-4.953-4.953-4.953-13.012 0-17.965l30.001-30c2.476-2.477 5.728-3.714 8.981-3.714 3.254 0 6.507 1.238 8.982 3.714l39.035 39.035c4.952 4.952 4.952 13.011 0 17.964zm1.015-38.163-19.853-19.853 109.271-109.27c3.841 2.589 7.495 5.567 10.89 8.962s6.374 7.05 8.962 10.891z"/><path d="m331.533 150.004c-2.93-2.929-7.678-2.929-10.607 0l-21.428 21.428c-1.406 1.406-2.196 3.314-2.196 5.303s.79 3.897 2.196 5.303l30.463 30.463c1.465 1.464 3.385 2.197 5.304 2.197s3.839-.732 5.304-2.197l21.428-21.428c1.406-1.406 2.196-3.314 2.196-5.303s-.79-3.897-2.196-5.303zm3.731 46.588-19.857-19.857 10.822-10.822 19.857 19.857z"/><path d="m182.031 299.506c-2.929-2.929-7.678-2.929-10.606 0l-21.428 21.428c-2.929 2.929-2.929 7.678 0 10.606l30.463 30.463c1.464 1.464 3.384 2.197 5.303 2.197s3.839-.732 5.303-2.197l21.428-21.428c2.929-2.929 2.929-7.678 0-10.606zm3.731 46.588-19.857-19.857 10.822-10.822 19.857 19.857z"/></g></g></svg>