<?xml version="1.0" encoding="iso-8859-1"?>
<!-- Generator: Adobe Illustrator 19.0.0, SVG Export Plug-In . SVG Version: 6.00 Build 0)  -->
<svg version="1.1" id="Layer_1" xmlns="http://www.w3.org/2000/svg" xmlns:xlink="http://www.w3.org/1999/xlink" x="0px" y="0px"
	 viewBox="0 0 512.001 512.001" style="enable-background:new 0 0 512.001 512.001;" xml:space="preserve">
<g>
	<g>
		<path d="M312.506,80.294c-2.088-4.088-7.094-5.71-11.18-3.623c-4.088,2.086-5.71,7.093-3.623,11.18
			c31.069,60.858,46.823,126.599,46.823,195.401c0,72.308-18.199,143.46-52.722,206.504l-29.742-31.726
			c-1.571-1.676-3.765-2.627-6.063-2.627c-2.298,0-4.492,0.951-6.063,2.627l-29.741,31.726
			c-34.523-63.043-52.722-134.195-52.722-206.504c0-49.955,8.484-98.904,25.218-145.486c14.99-41.73,36.267-80.707,63.307-116
			c10.792,14.096,20.756,28.912,29.696,44.164c2.321,3.959,7.41,5.288,11.373,2.966c3.959-2.321,5.288-7.412,2.967-11.372
			c-11.114-18.958-23.752-37.27-37.561-54.424C260.895,1.139,258.515,0,255.999,0c-2.515,0-4.896,1.139-6.473,3.099
			c-31.299,38.879-55.684,82.296-72.478,129.047c-17.383,48.39-26.196,99.229-26.196,151.105c0,79.001,20.917,156.674,60.49,224.622
			c1.321,2.268,3.637,3.78,6.246,4.075c2.598,0.297,5.202-0.658,6.998-2.574l31.413-33.51l31.414,33.51
			c1.58,1.685,3.779,2.627,6.062,2.627c0.311,0,0.624-0.018,0.937-0.053c2.608-0.296,4.924-1.806,6.246-4.075
			c39.572-67.949,60.49-145.622,60.49-224.622C361.146,211.798,344.782,143.514,312.506,80.294z"/>
	</g>
</g>
<g>
	<g>
		<path d="M310.966,140.762c-11.972-33.327-28.154-65.076-48.097-94.367c-1.547-2.273-4.12-3.633-6.869-3.633
			c-2.749,0-5.322,1.361-6.869,3.633c-19.942,29.288-36.124,61.037-48.096,94.367c-16.387,45.62-24.696,93.56-24.696,142.49
			c0,22.554,1.829,45.284,5.438,67.559c0.734,4.531,4.996,7.611,9.532,6.874c4.531-0.734,7.608-5.002,6.874-9.532
			c-3.467-21.399-5.224-43.235-5.224-64.902c0-47.008,7.98-93.058,23.717-136.87c8.289-23.077,18.684-45.362,31.013-66.543v84.705
			c0,4.589,3.72,8.31,8.31,8.31c4.591,0,8.31-3.721,8.31-8.31V79.837c12.33,21.183,22.726,43.468,31.014,66.543
			c15.737,43.809,23.716,89.859,23.716,136.87c0,55.565-11.673,111.372-33.846,162.191l-20.885-22.28v-50.307
			c0-4.589-3.72-8.31-8.31-8.31c-4.591,0-8.31,3.721-8.31,8.31v50.309h0.001l-20.888,22.283
			c-9.667-22.129-17.366-45.2-22.939-68.749c-1.058-4.466-5.531-7.231-10.001-6.173c-4.465,1.057-7.229,5.535-6.173,10
			c6.787,28.675,16.604,56.673,29.181,83.216c1.178,2.485,3.507,4.226,6.224,4.652c2.728,0.425,5.469-0.522,7.349-2.526
			l25.557-27.264l25.557,27.264c1.583,1.689,3.784,2.627,6.063,2.627c0.427,0,0.857-0.033,1.285-0.1
			c2.717-0.425,5.047-2.167,6.224-4.651c26.516-55.96,40.532-118.372,40.532-180.488C335.66,234.32,327.352,186.38,310.966,140.762z
			"/>
	</g>
</g>
<g>
	<g>
		<path d="M255.999,183.934c-4.591,0-8.31,3.721-8.31,8.31v152.909c0,4.589,3.72,8.31,8.31,8.31c4.591,0,8.31-3.721,8.31-8.31
			V192.244C264.31,187.654,260.59,183.934,255.999,183.934z"/>
	</g>
</g>
<g>
</g>
<g>
</g>
<g>
</g>
<g>
</g>
<g>
</g>
<g>
</g>
<g>
</g>
<g>
</g>
<g>
</g>
<g>
</g>
<g>
</g>
<g>
</g>
<g>
</g>
<g>
</g>
<g>
</g>
</svg>
