<?xml version="1.0" encoding="iso-8859-1"?>
<!-- Generator: Adobe Illustrator 19.0.0, SVG Export Plug-In . SVG Version: 6.00 Build 0)  -->
<svg version="1.1" id="Layer_1" xmlns="http://www.w3.org/2000/svg" xmlns:xlink="http://www.w3.org/1999/xlink" x="0px" y="0px"
	 viewBox="0 0 512 512" style="enable-background:new 0 0 512 512;" xml:space="preserve">
<g>
	<g>
		<path d="M468.316,214.671c-4.53-3.466-9.359-6.604-14.353-9.326c-3.69-2.011-8.313-0.652-10.326,3.04
			c-2.011,3.689-0.651,8.313,3.039,10.325c4.309,2.349,8.478,5.058,12.391,8.052c1.379,1.055,7.014,2.967,10.67-1.421
			C472.427,222.112,471.655,217.226,468.316,214.671z"/>
	</g>
</g>
<g>
	<g>
		<path d="M486.182,231.783c-2.695-3.225-7.496-3.654-10.721-0.958c-3.226,2.695-3.656,7.496-0.959,10.721
			c14.365,17.187,22.276,38.974,22.276,61.35c0,52.829-42.98,95.807-95.807,95.807c-52.828,0-95.807-42.979-95.807-95.807
			c0-39.257,23.737-73.068,57.608-87.854l3.272,9.669c-29.865,13.395-50.732,43.39-50.732,78.184
			c0,47.233,38.426,85.659,85.659,85.659c47.233,0,85.659-38.426,85.659-85.659c0-47.233-38.426-85.659-85.659-85.659
			c-7.079,0-13.954,0.88-20.538,2.506l-3.27-9.66c7.615-1.955,15.591-2.995,23.807-2.995c8.883,0,17.682,1.22,26.153,3.626
			c4.043,1.147,8.253-1.198,9.403-5.242c1.149-4.043-1.199-8.253-5.242-9.402c-9.825-2.791-20.022-4.207-30.313-4.207
			c-9.921,0-19.539,1.315-28.697,3.768l-25.167-75.398c5.833-4.361,19.34-11.719,39.225-6.22c4.05,1.12,8.245-1.255,9.365-5.307
			c1.12-4.052-1.255-8.245-5.307-9.365c-35.88-9.925-56.837,12.405-57.71,13.361c-1.862,2.035-2.478,4.917-1.61,7.535l8.993,27.107
			c-34.148,7.26-64.034,17.96-89.841,30.123c-27.019,5.106-52.962-5.764-60.021-9.082l-10.991-23.595l50.627-13.04
			c7.904-2.036,12.708-9.108,11.683-17.199c-1.011-7.976-7.55-13.766-15.55-13.766c-0.182,0-98.431,3.059-98.431,3.059
			c-7.065,0.22-13.077,4.946-14.957,11.761s0.856,13.955,6.809,17.768c0.459,0.294,44.076,15.473,44.699,15.311l0.127-0.032
			l28.836,61.904c-3.908,2.735-7.633,5.459-11.204,8.16c-19.234-15.967-43.922-25.581-70.815-25.581
			C49.809,193.136,0,242.943,0,304.166s49.809,111.03,111.03,111.03c53.242,0,97.844-37.672,108.569-87.76
			c6.313,6.899,15.385,11.235,25.452,11.235c2.567,0,5.064-0.29,7.472-0.824l5.025,10.786c1.291,2.771,5.306,6.179,10.114,3.685
			c3.732-1.935,5.461-6.302,3.686-10.113l-5.063-10.87c8.071-6.322,13.272-16.147,13.272-27.169c0-8.972-3.445-17.153-9.077-23.296
			l77.007-110.984l10.385,30.684c-39.879,16.86-67.933,56.377-67.933,102.324c0,61.223,49.808,111.03,111.03,111.03
			S512,364.117,512,302.895C512,276.958,502.831,251.703,486.182,231.783z M382.974,274.738
			c-7.812,4.795-13.565,12.618-15.646,21.817h-9.865c-4.205,0-7.612,3.408-7.612,7.612s3.407,7.612,7.612,7.612h9.857
			c3.477,15.375,17.238,26.894,33.649,26.894c6.763,0,13.072-1.963,18.403-5.338l7.58,7.58c5.639,3.75,9.279,1.486,10.765,0
			c2.973-2.972,2.973-7.792,0-10.764l-7.58-7.58c3.375-5.331,5.338-11.639,5.338-18.403c0-6.762-1.963-13.071-5.338-18.403
			l4.471-4.471c2.973-2.973,2.973-7.792,0-10.764c-2.973-2.973-7.791-2.973-10.765,0l-4.47,4.471
			c-10.885-6.958-20.805-5.275-21.982-5.152l-12.055-35.617c5.032-1.146,10.26-1.771,15.634-1.771
			c17.007,0,32.625,6.06,44.81,16.132l-5.03,5.03c-2.973,2.973-2.973,7.792,0,10.764c1.487,1.486,6.301,3.914,10.765,0l4.878-4.878
			c9.391,11.969,15.012,27.03,15.012,43.389c0,38.839-31.598,70.436-70.436,70.436c-35.828,0-65.473-26.895-69.856-61.553h2.781
			c4.205,0,7.612-3.408,7.612-7.612c0-4.204-3.407-7.611-7.612-7.611h-3.066c2.277-25.383,18.071-46.925,40.117-57.359
			L382.974,274.738z M408.18,301.725l-5.674-16.765c9.915,0.788,17.746,9.091,17.746,19.204c0,10.633-8.65,19.282-19.282,19.282
			c-10.633,0-19.282-8.65-19.282-19.282c0-5.679,2.483-10.778,6.404-14.31l5.669,16.749c1.075,3.172,5.34,6.343,9.65,4.77
			C407.359,309.934,409.527,305.707,408.18,301.725z M162.6,133.349l-35.329-13.102c-0.069-0.133-0.093-0.318-0.017-0.592
			c0.159-0.576,0.49-0.588,0.757-0.595l97.957-3.052c0.192,0,0.301,0.027,0.284,0.011c0.155,0.154,0.232,0.688,0.155,0.844
			c-0.024,0.02-0.14,0.085-0.369,0.145L162.6,133.349z M220.525,193.036c-5.098,2.958-9.989,5.948-14.673,8.952l-6.383-13.701
			C205.456,190.171,212.619,191.963,220.525,193.036z M111.03,399.974c-52.828,0-95.807-42.979-95.807-95.807
			s42.98-95.807,95.807-95.807c22.037,0,42.357,7.484,58.561,20.036c-2.766,2.283-5.418,4.534-7.93,6.734
			c-14.194-10.438-31.701-16.621-50.631-16.621c-47.232,0-85.659,38.426-85.659,85.659s38.427,85.659,85.659,85.659
			c44.666,0,81.436-34.369,85.302-78.047h10.203C202.643,361.061,161.298,399.974,111.03,399.974z M50.239,296.555h-9.227
			c3.809-35.271,33.752-62.824,70.019-62.824c14.474,0,27.939,4.393,39.14,11.909c-10.25,9.783-18.66,18.964-25.34,26.91
			c-4.229-1.853-8.895-2.889-13.8-2.889c-6.763,0-13.072,1.964-18.403,5.339l-18.331-18.331c-2.972-2.973-7.791-2.973-10.764,0
			c-2.973,2.973-2.973,7.792,0,10.764l18.5,18.066c-2.156,3.337-3.75,7.065-4.652,11.057h-2.785c-4.204,0-7.612,3.408-7.612,7.612
			s3.408,7.612,7.612,7.612h2.785c2.923,12.924,13.113,23.115,26.037,26.037v24.608c0,4.204,3.408,7.611,7.611,7.611
			c4.204,0,7.612-3.408,7.612-7.611v-24.601c12.923-2.923,23.115-13.12,26.037-26.044h36.369
			c-3.808,35.271-33.751,62.824-70.018,62.824c-36.266,0-66.21-27.554-70.019-62.824h9.227c4.204,0,7.611-3.408,7.611-7.612
			S54.444,296.555,50.239,296.555z M93.331,296.529c2.964-6.844,9.778-11.647,17.698-11.647c1.27,0,2.508,0.131,3.71,0.366
			c-6.665,8.915-9.987,14.568-10.295,15.098c-0.014,0.024-2.34,3.149,0.191,7.937c1.928,3.648,6.364,3.492,6.395,3.492h17.71
			c-2.959,6.857-9.781,11.671-17.71,11.671c-10.633,0-19.282-8.65-19.282-19.282c0-2.703,0.564-5.274,1.572-7.611h0.036
			L93.331,296.529z M125.34,296.554c0.62-0.849,1.28-1.739,1.977-2.665c0.538,0.848,1.022,1.734,1.423,2.665H125.34z
			 M144.679,296.554c-1.27-5.616-3.911-10.716-7.557-14.929c6.522-7.712,14.735-16.633,24.762-26.118
			c10.463,10.93,17.454,25.204,19.164,41.046H144.679z M196.333,296.555c-1.751-19.771-10.243-37.622-23.162-51.253
			c2.476-2.144,5.069-4.328,7.793-6.548c14.412,15.399,23.814,35.54,25.573,57.801H196.333z M219.6,280.895
			c-4.192-19.578-13.556-37.259-26.594-51.534c2.127-1.585,4.329-3.181,6.577-4.778l24.367,52.31
			C222.391,278.103,220.931,279.44,219.6,280.895z M259.538,316.851l-4.569-9.808c-1.775-3.811-6.301-5.462-10.113-3.685
			c-3.811,1.775-5.461,6.302-3.685,10.113l4.63,9.939c-0.25,0.01-20.03,1.209-20.03-19.245c0-10.633,8.65-19.282,19.282-19.282
			c10.633,0,19.283,8.65,19.283,19.282C264.334,309.024,262.514,313.457,259.538,316.851z M257.979,272.183
			c-3.996-1.621-8.357-2.522-12.927-2.522c-2.509,0-4.953,0.276-7.31,0.787l-25.402-54.531
			c30.543-19.831,70.44-39.278,120.243-51.254L257.979,272.183z"/>
	</g>
</g>
<g>
</g>
<g>
</g>
<g>
</g>
<g>
</g>
<g>
</g>
<g>
</g>
<g>
</g>
<g>
</g>
<g>
</g>
<g>
</g>
<g>
</g>
<g>
</g>
<g>
</g>
<g>
</g>
<g>
</g>
</svg>
