<?xml version="1.0" encoding="iso-8859-1"?>
<!-- Generator: Adobe Illustrator 19.0.0, SVG Export Plug-In . SVG Version: 6.00 Build 0)  -->
<svg version="1.1" id="Layer_1" xmlns="http://www.w3.org/2000/svg" xmlns:xlink="http://www.w3.org/1999/xlink" x="0px" y="0px"
	 viewBox="0 0 511.999 511.999" style="enable-background:new 0 0 511.999 511.999;" xml:space="preserve">
<g>
	<g>
		<path d="M345.473,202.423l-35.939-35.939c-3.101-3.099-8.13-3.099-11.23,0.001c-3.101,3.102-3.101,8.13,0,11.231l35.939,35.939
			c3.23,3.229,8.684,3.013,11.653-0.456C348.557,210.09,348.365,205.314,345.473,202.423z"/>
	</g>
</g>
<g>
	<g>
		<path d="M213.695,334.202l-35.939-35.939c-3.101-3.1-8.13-3.1-11.23,0c-3.101,3.103-3.101,8.13,0,11.231l35.939,35.939
			c1.55,1.55,3.583,2.326,5.615,2.326C215.025,347.76,218.587,339.095,213.695,334.202z"/>
	</g>
</g>
<g>
	<g>
		<path d="M507.199,448.083L447.3,388.184c-1.018-1.018-2.294-1.74-3.689-2.089l-47.918-11.98c-2.988-0.745-5.8,0.348-7.916,2.464
			l-54.736-54.736c13.609-14.008,26.523-28.794,38.459-44.047c2.703-3.454,2.094-8.446-1.36-11.148
			c-3.455-2.705-8.446-2.093-11.148,1.36c-11.542,14.748-24.027,29.051-37.182,42.604l-13.024-13.024
			c20.823-26.368,19.087-64.844-5.241-89.172c-12.7-12.699-29.585-19.694-47.544-19.694c-15.302,0-29.813,5.093-41.631,14.449
			l-13.013-13.013c28.952-28.111,60.693-52.567,94.661-73.084c23.409,6.727,44.855,19.354,62.185,36.686
			c17.336,17.335,29.966,38.789,36.692,62.209c-5.533,9.145-11.357,18.151-17.479,27.007c-2.524,3.651-1.439,8.951,2.359,11.267
			c3.522,2.148,8.352,1.169,10.706-2.236c43.323-62.677,72.398-132.552,86.419-207.681c1.008-5.395-3.872-10.264-9.264-9.264
			c-104.992,19.593-200.768,69.29-277.509,143.869l-54.674-54.674c2.116-2.116,3.211-4.929,2.463-7.916L125.937,68.42
			c-0.349-1.396-1.07-2.67-2.089-3.689L63.949,4.831c-6.399-6.399-16.812-6.399-23.21,0L4.799,40.771
			c-6.399,6.4-6.399,16.812,0,23.211l59.899,59.898c1.018,1.018,2.294,1.74,3.689,2.089l47.918,11.98
			c2.99,0.747,5.801-0.348,7.916-2.464l54.679,54.679c-8.419,8.669-16.603,17.634-24.37,26.765
			c-2.803,3.296-2.393,8.392,0.904,11.194c3.296,2.804,8.391,2.393,11.194-0.904c7.493-8.809,15.383-17.459,23.503-25.826
			l13.019,13.019c-20.755,26.365-18.998,64.787,5.305,89.089c12.7,12.699,29.585,19.694,47.544,19.694
			c15.267,0,29.746-5.07,41.548-14.386l13.022,13.022c-28.93,28.08-60.649,52.51-94.589,73.012
			c-23.408-6.727-44.854-19.354-62.183-36.686c-17.313-17.313-29.933-38.734-36.667-62.118c9.085-15.092,18.918-29.721,29.48-43.787
			c2.597-3.459,1.879-8.522-1.582-11.119c-3.46-2.597-8.521-1.876-11.119,1.583c-11.403,15.187-21.982,31.01-31.713,47.353
			c-0.166,0.222-0.337,0.443-0.481,0.686c-13.35,22.442-25.18,46.122-35.158,70.381c-0.144,0.35-0.253,0.709-0.345,1.07
			c-13.901,33.96-24.385,69.331-31.113,105.384c-1.008,5.397,3.872,10.265,9.264,9.264
			c104.958-19.588,200.708-69.258,277.436-143.796l54.747,54.747c-2.116,2.116-3.211,4.929-2.463,7.916l11.979,47.919
			c0.349,1.396,1.07,2.67,2.089,3.689l59.899,59.898c6.316,6.316,16.894,6.316,23.21,0l35.939-35.939
			C513.599,464.895,513.599,454.483,507.199,448.083z M458.998,52.963c-5.57,26.598-13.116,52.489-22.581,77.588
			c-7.432-10.667-15.81-20.708-25.055-29.953c-9.23-9.23-19.255-17.595-29.901-25.018C406.555,66.112,432.453,58.53,458.998,52.963z
			 M363.521,82.746c13.219,8.224,25.52,17.993,36.609,29.084c11.088,11.087,20.859,23.388,29.082,36.607
			c-7.051,16.775-15.009,33.244-23.759,49.175c-8.028-20.554-20.284-39.349-36.022-55.086
			c-15.737-15.738-34.532-27.994-55.085-36.021C330.277,97.755,346.746,89.798,363.521,82.746z M115.796,121.452l-41.423-10.358
			L16.029,52.75c-0.038-0.038-0.155-0.155-0.155-0.375c0-0.219,0.116-0.335,0.155-0.374l35.939-35.938
			c0.038-0.038,0.155-0.155,0.375-0.155c0.22,0,0.336,0.116,0.375,0.155l58.344,58.343l10.356,41.423L115.796,121.452z
			 M255.999,307.314c-13.718,0-26.614-5.342-36.314-15.042c-18.1-18.1-19.835-46.461-5.21-66.532l71.745,71.745
			C277.494,303.864,267.014,307.314,255.999,307.314z M297.463,286.264l-71.77-71.77c8.743-6.418,19.258-9.89,30.307-9.89
			c13.718,0,26.614,5.342,36.314,15.042C310.439,237.772,312.154,266.189,297.463,286.264z M53.005,458.956
			c5.542-26.343,13.152-52.257,22.677-77.446c7.408,10.614,15.751,20.608,24.954,29.811c9.23,9.23,19.253,17.594,29.9,25.018
			C105.444,445.807,79.548,453.389,53.005,458.956z M148.477,429.174c-13.219-8.224-25.52-17.993-36.609-29.084
			c-11.066-11.065-20.818-23.34-29.031-36.529c7.061-16.791,14.996-33.207,23.745-49.166c8.027,20.52,20.27,39.284,35.985,54.998
			c15.738,15.737,34.532,27.994,55.085,36.021C181.722,414.164,165.253,422.121,148.477,429.174z M495.969,460.062l-35.939,35.939
			c-0.038,0.038-0.155,0.155-0.375,0.155c-0.22,0-0.336-0.116-0.375-0.155l-58.344-58.343l-10.356-41.423l5.622-5.623l41.422,10.357
			l58.344,58.344c0.038,0.038,0.155,0.155,0.155,0.375C496.124,459.908,496.007,460.024,495.969,460.062z"/>
	</g>
</g>
<g>
</g>
<g>
</g>
<g>
</g>
<g>
</g>
<g>
</g>
<g>
</g>
<g>
</g>
<g>
</g>
<g>
</g>
<g>
</g>
<g>
</g>
<g>
</g>
<g>
</g>
<g>
</g>
<g>
</g>
</svg>
