<?xml version="1.0" encoding="utf-8"?>
<!-- Generator: Adobe Illustrator 16.0.0, SVG Export Plug-In . SVG Version: 6.00 Build 0)  -->
<!DOCTYPE svg PUBLIC "-//W3C//DTD SVG 1.1//EN" "http://www.w3.org/Graphics/SVG/1.1/DTD/svg11.dtd">
<svg version="1.1" id="Layer_1" xmlns="http://www.w3.org/2000/svg" xmlns:xlink="http://www.w3.org/1999/xlink" x="0px" y="0px"
	 width="1000px" height="1000px" viewBox="0 0 1000 1000" enable-background="new 0 0 1000 1000" xml:space="preserve">
<g>
	<g>
		<path d="M820.7,335.376c2.762-8.529-1.911-17.684-10.437-20.444c-8.527-2.765-17.682,1.909-20.444,10.437
			c-41.14,126.957-110.175,239.508-205.196,334.528c-99.862,99.863-223.261,172.994-358.007,212.383l2.74-84.893
			c0.145-4.482-1.572-8.826-4.745-12c-3.174-3.174-7.518-4.891-12.001-4.746l-84.89,2.742
			c39.388-134.746,112.519-258.145,212.382-358.008c68.991-68.992,148.31-124.876,235.754-166.098
			c78.334-36.93,161.548-61.375,247.635-72.773c-4.564,34.373-11.265,68.596-19.982,102.006
			c-2.262,8.674,2.931,17.537,11.611,19.804c8.673,2.262,17.539-2.934,19.803-11.608c10.833-41.531,18.67-84.275,23.289-127.037
			c0.529-4.888-1.186-9.748-4.66-13.223c-3.473-3.473-8.334-5.188-13.219-4.66c-96.921,10.469-190.56,36.753-278.319,78.126
			c-90.837,42.823-173.22,100.863-244.864,172.508C208.042,501.525,129.659,637.684,90.471,786.178
			c-1.308,4.955-0.197,10.242,2.999,14.252c3.178,3.998,8.093,6.275,13.219,6.111l89.664-2.896l-2.895,89.664
			c-0.145,4.51,1.591,8.848,4.744,12c0.429,0.43,0.887,0.838,1.367,1.221c4.011,3.193,9.294,4.307,14.253,2.998
			c148.494-39.189,284.654-117.572,393.759-226.676C706.26,584.166,777.965,467.263,820.7,335.376z"/>
	</g>
</g>
<g>
	<g>
		<path d="M735.063,416.759c29.493-62.561,50.992-128.757,63.902-196.752c1.002-5.275-0.673-10.707-4.469-14.504
			c-3.797-3.797-9.23-5.471-14.504-4.469c-67.99,12.907-134.186,34.406-196.752,63.902
			c-85.635,40.373-163.319,95.105-230.895,162.682c-31.148,31.148-60.014,65.066-85.793,100.815
			c-5.244,7.27-3.611,17.41,3.671,22.656c7.271,5.244,17.415,3.6,22.657-3.67c24.766-34.342,52.496-66.925,82.42-96.849
			c64.921-64.921,139.54-117.499,221.781-156.272c43.318-20.423,88.451-36.844,134.73-49.068l11.199-2.619
			c0,0,9.248-3.689,13.656,0.719c5.482,5.482,1.193,14.131,1.193,14.131l-3.094,10.721c-12.227,46.284-28.646,91.419-49.067,134.733
			c-38.769,82.237-91.348,156.855-156.272,221.781c-76.74,76.738-169.935,137.689-270.74,177.252l1.926-59.613
			c0,0,1.285-15.967-2.847-20.1c-4.133-4.134-20.108-2.852-20.108-2.852h0.001l-59.622,1.928
			c17.211-43.912,38.441-86.408,63.266-126.627c4.707-7.629,2.348-17.625-5.287-22.338c-7.626-4.705-17.628-2.338-22.336,5.287
			c-30.228,48.975-55.337,101.199-74.625,155.227c-1.805,5.059-0.992,10.68,2.171,15.02c3.181,4.355,8.274,6.832,13.638,6.662
			l72.949-2.357l-2.357,72.949c-0.146,4.518,1.598,8.854,4.746,12.002c0.589,0.588,1.229,1.137,1.913,1.635
			c4.339,3.166,9.963,3.979,15.019,2.174c113.905-40.664,219.457-107.502,305.244-193.289
			C639.957,580.074,694.691,502.391,735.063,416.759z"/>
	</g>
</g>
<g display="none">
	<g display="inline">
		<path d="M599.526,400.47c-6.341-6.341-16.616-6.338-22.953-0.001L365.396,611.646c-6.338,6.338-6.339,16.615,0,22.955
			c6.34,6.34,16.615,6.338,22.953,0l211.178-211.178C605.867,417.085,605.867,406.81,599.526,400.47z"/>
	</g>
</g>
</svg>
